# xmcd CD database file
#
# Track frame offsets:
#	150
#	18147
#	34340
#	39734
#	47057
#	50963
#	54897
#	62614
#	78429
#	84405
#	90219
#	95280
#	100933
#	106329
#	119227
#	131674
#	136195
#	140753
#	146319
#	153380
#	157928
#	166024
#	176111
#	181293
#	189194
#	206443
#	212023
#	216714
#	221134
#	224712
#	232435
#	248026
#
# Disc length: 3537 seconds
#
# Revision: 0
# Processed by: cddbd v1.5.2PL0 Copyright (c) Steve Scherf et al.
# Submitted via: CDex 1.51
#
DISCID=d70dcf20
DTITLE=Blackie Swart and Manie Bodenstein - So Ry Die Boere
DYEAR=2004
DGENRE=Country
TTITLE0=So Ry Die Boere
TTITLE1=Stamp Daai Boude Lam Lekkerkry-potpourri
TTITLE2=Laat My Lekker Kry
TTITLE3=Uit Die Outyd
TTITLE4=Bokkie, My Bokkie
TTITLE5=Een Druk, Een Soen
TTITLE6=Gee My Die See
TTITLE7=Oh Li´l Miss Ida Bubblegum En Backtracks
TTITLE8=Meisie Meisie
TTITLE9=Da-Idi
TTITLE10=Ska-Rumba
TTITLE11=Pers Kombers
TTITLE12=Meadowlands
TTITLE13=Foon Teen Die Oor
TTITLE14=Red River Rock Sak-sak Keurspel
TTITLE15=Ou Waenhuis
TTITLE16=Oom Hans Se Gemmerdans
TTITLE17=Neef Frans Se Polka
TTITLE18=Warm Snare
TTITLE19=Platboom Polka
TTITLE20=Outa In Die Langpad Lonely  Cowboy Shuffle
TTITLE21=Ou Ryperd
TTITLE22=Maggie
TTITLE23=Darling
TTITLE24=Hoekom Is Die Naweek So Kort? Skoffel-Voete Mieks
TTITLE25=Meisie Sonder Sokkies
TTITLE26=Loslappie
TTITLE27=Al Le Die Berge Nog So Blou
TTITLE28=Jaloers Bokkie
TTITLE29=Liewe Lulu
TTITLE30=Rooispan Van Bredasdorp
TTITLE31=Maanskyn Wals
EXTD=YEAR: 2004
EXTT0=
EXTT1=
EXTT2=
EXTT3=
EXTT4=
EXTT5=
EXTT6=
EXTT7=
EXTT8=
EXTT9=
EXTT10=
EXTT11=
EXTT12=
EXTT13=
EXTT14=
EXTT15=
EXTT16=
EXTT17=
EXTT18=
EXTT19=
EXTT20=
EXTT21=
EXTT22=
EXTT23=
EXTT24=
EXTT25=
EXTT26=
EXTT27=
EXTT28=
EXTT29=
EXTT30=
EXTT31=
PLAYORDER=
